<?xml version="1.0" encoding="utf-8"?>
<!-- Generator: Adobe Illustrator 16.0.0, SVG Export Plug-In . SVG Version: 6.00 Build 0)  -->
<!DOCTYPE svg PUBLIC "-//W3C//DTD SVG 1.1//EN" "http://www.w3.org/Graphics/SVG/1.1/DTD/svg11.dtd">
<svg version="1.1" id="圖層_1" xmlns="http://www.w3.org/2000/svg" xmlns:xlink="http://www.w3.org/1999/xlink" x="0px" y="0px"
	 width="220px" height="220px" viewBox="0 0 220 220" enable-background="new 0 0 220 220" xml:space="preserve">
<path fill="#FFFFFF" d="M208.23,157.909c-7.577-7.742-15.378-15.532-22.922-23.061l-8.042-8.041
	c-0.541-0.542-1.065-1.103-1.612-1.692l-2.093-2.234c0,0,2.807-4.035,3.233-4.658c6.966-10.175,9.794-21.245,8.407-32.905
	c-2.988-25.137-23.201-43.38-48.062-43.38c-4.45,0-8.926,0.615-13.303,1.829c-9.713,2.694-18.339,8.484-24.655,16.341
	c-5.538-5.556-11.088-11.1-16.657-16.625c-0.845-0.842-2.333-1.469-3.524-1.473c-18.283-0.092-36.572-0.084-54.858-0.033
	c-1.908,0.003-3.909,0.148-5.711,0.719c-5.613,1.781-8.413,6.169-8.421,12.91c-0.021,18.125-0.006,36.25-0.006,54.374
	c0,18.041-0.01,36.087,0.001,54.131c0.005,8.937,4.975,13.933,13.914,13.941c27.067,0.017,54.133,0.017,81.199,0
	c8.602-0.007,13.657-5.052,13.666-13.702c0.01-9.62,0.009-19.239,0.01-28.859c5.594,2.243,11.682,3.466,18.051,3.466
	c10.132-0.004,20.019-3.192,28.587-9.234c0.887-0.625,2.09-1.341,3.528-1.341c1.787,0,3.056,1.079,3.852,1.888
	c6.839,6.968,13.735,13.872,20.632,20.779l4.655,4.66c0.62,0.625,1.237,1.247,1.85,1.876c1.833,1.867,3.564,3.634,5.446,5.25
	c0.786,0.679,1.587,0.819,2.116,0.819c1.158,0,2.428-0.699,2.488-2.238C210.031,160.532,209.223,158.924,208.23,157.909z"/>
<g>
	<g>
		<path fill="#B41D23" d="M10.004,109.978c0-18.123-0.015-36.249,0.006-54.374c0.008-6.741,2.808-11.129,8.421-12.91
			c1.802-0.571,3.804-0.715,5.711-0.719c18.286-0.051,36.575-0.059,54.858,0.033c1.192,0.004,2.679,0.631,3.524,1.473
			c11.722,11.633,23.375,23.336,34.971,35.093c0.735,0.746,1.243,2.069,1.245,3.127c0.066,27.547,0.069,55.097,0.042,82.646
			c-0.009,8.65-5.063,13.695-13.666,13.702c-27.066,0.017-54.132,0.017-81.199,0c-8.939-0.009-13.908-5.005-13.914-13.941
			C9.994,146.064,10.004,128.019,10.004,109.978z M113.565,81.61c-1.114,0-2.057,0.007-2.997-0.002
			c-6.766-0.042-13.535-0.058-20.3-0.148c-3.154-0.041-5.808-1.364-7.774-3.793c-0.973-1.199-2.004-1.577-3.505-1.57
			c-14.904,0.053-29.812,0.032-44.716,0.029c-0.724,0-1.641,0.248-2.132-0.096c-0.864-0.613-1.95-1.547-2.035-2.433
			c-0.07-0.72,1.089-1.725,1.914-2.292c0.501-0.342,1.41-0.104,2.133-0.104c14.098-0.002,28.199,0,42.298,0c0.855,0,1.709,0,2.451,0
			c0-8.244,0-16.17,0-24.101c-0.546-0.062-0.864-0.129-1.183-0.129c-18.21-0.004-36.417-0.047-54.625,0.019
			c-5.516,0.021-7.963,2.579-7.972,8.379c-0.045,36.419-0.042,72.835-0.004,109.253c0.004,5.742,2.71,8.47,8.491,8.479
			c27.232,0.056,54.464,0.038,81.697,0.005c2.831-0.005,5.72-0.666,7.103-3.312c0.949-1.813,1.231-4.15,1.241-6.261
			c0.075-26.345,0.05-52.691,0.048-79.035C113.699,83.634,113.622,82.771,113.565,81.61z M107.717,76.422
			c-7.865-7.901-15.725-15.794-23.583-23.688c0,5.7-0.245,11.542,0.084,17.349c0.21,3.692,2.551,6.103,5.932,6.263
			C96.055,76.62,101.98,76.422,107.717,76.422z"/>
		<path fill="#B41D23" d="M64.591,130.675c-10.056,0-20.112,0.002-30.167,0c-0.723,0-1.619,0.236-2.132-0.098
			c-0.902-0.588-2.129-1.51-2.176-2.346c-0.041-0.808,1.117-1.866,1.989-2.465c0.56-0.387,1.556-0.179,2.358-0.181
			c19.953-0.004,39.903-0.004,59.855-0.002c3.364,0.002,4.631,0.717,4.602,2.578c-0.028,1.883-1.189,2.513-4.64,2.513
			C84.383,130.677,74.485,130.675,64.591,130.675z"/>
		<path fill="#B41D23" d="M64.388,143.72c9.977,0,19.952-0.003,29.927,0c0.643,0,1.291-0.021,1.931,0.021
			c1.575,0.106,2.858,0.952,2.559,2.509c-0.186,0.947-1.452,1.787-2.39,2.453c-0.438,0.311-1.252,0.106-1.894,0.106
			c-20.111,0.002-40.224,0.002-60.336,0c-0.564,0-1.282,0.193-1.658-0.076c-0.945-0.676-2.247-1.452-2.463-2.396
			c-0.347-1.54,0.88-2.454,2.468-2.594c0.639-0.053,1.286-0.021,1.931-0.021C44.438,143.717,54.412,143.72,64.388,143.72z"/>
		<path fill="#B41D23" d="M64.451,94.336c-9.981,0-19.964,0-29.945,0c-0.646,0-1.441,0.231-1.901-0.062
			c-0.975-0.618-2.29-1.378-2.531-2.318c-0.41-1.596,0.926-2.398,2.456-2.585c0.635-0.081,1.286-0.047,1.929-0.047
			c19.964-0.002,39.932-0.002,59.896,0c3.339,0,4.771,0.774,4.531,2.615c-0.364,2.75-2.568,2.392-4.487,2.395
			C84.419,94.341,74.435,94.336,64.451,94.336z"/>
		<path fill="#B41D23" d="M64.397,112.387c-10.064,0-20.128,0-30.19-0.002c-0.726,0-1.588,0.216-2.142-0.1
			c-0.814-0.46-1.95-1.306-1.956-1.998c-0.01-0.874,0.816-1.953,1.581-2.577c0.511-0.416,1.543-0.246,2.342-0.246
			c20.208-0.01,40.416-0.008,60.625-0.008c0.482,0,0.966-0.012,1.45,0.012c1.685,0.081,2.853,0.881,2.776,2.644
			c-0.071,1.65-1.256,2.278-2.844,2.276c-4.43-0.018-8.857-0.005-13.287-0.003C76.636,112.387,70.517,112.387,64.397,112.387z"/>
	</g>
	<path d="M208.23,157.909c-7.577-7.742-15.378-15.532-22.922-23.061l-8.042-8.041c-0.541-0.542-1.065-1.103-1.612-1.692
		l-2.093-2.234c0,0,2.807-4.035,3.233-4.658c6.966-10.175,9.794-21.245,8.407-32.905c-2.988-25.137-23.201-43.38-48.062-43.38
		c-4.45,0-8.926,0.615-13.303,1.829c-9.733,2.7-18.377,8.508-24.696,16.39c1.326,1.33,2.651,2.66,3.977,3.99
		c1.023-1.309,2.102-2.587,3.288-3.789c8.079-8.205,18.857-12.761,30.339-12.825L137,47.53c23.705,0,42.583,18.855,42.981,42.924
		c0.182,11.006-4.111,21.557-12.09,29.714c-8.134,8.32-19.379,13.126-30.854,13.195h-0.253c-6.478,0-12.559-1.443-18.019-3.974
		c0.002,2.028,0.004,4.058,0.004,6.089c5.6,2.249,11.696,3.475,18.074,3.475c10.132-0.004,20.019-3.192,28.587-9.234
		c0.887-0.625,2.09-1.341,3.528-1.341c1.787,0,3.056,1.079,3.852,1.888c6.839,6.968,13.735,13.872,20.632,20.779l4.655,4.66
		c0.62,0.625,1.237,1.247,1.85,1.876c1.833,1.867,3.564,3.634,5.446,5.25c0.786,0.679,1.587,0.819,2.116,0.819
		c1.158,0,2.428-0.699,2.488-2.238C210.031,160.532,209.223,158.924,208.23,157.909z"/>
</g>
</svg>
