<?xml version="1.0" encoding="utf-8"?>
<!-- Generator: Adobe Illustrator 16.0.0, SVG Export Plug-In . SVG Version: 6.00 Build 0)  -->
<!DOCTYPE svg PUBLIC "-//W3C//DTD SVG 1.1//EN" "http://www.w3.org/Graphics/SVG/1.1/DTD/svg11.dtd">
<svg version="1.1" id="圖層_1" xmlns="http://www.w3.org/2000/svg" xmlns:xlink="http://www.w3.org/1999/xlink" x="0px" y="0px"
	 width="220px" height="220px" viewBox="0 0 220 220" enable-background="new 0 0 220 220" xml:space="preserve">
<g>
	<path fill-rule="evenodd" clip-rule="evenodd" fill="#FFFFFF" d="M206.214,185.386c-0.244-0.279-0.485-0.558-0.702-0.845
		c-4.442-5.807-7.349-12.24-8.635-19.12c-0.497-2.652,0.187-4.567,2.292-6.396c10.35-9.025,15.38-20.516,15.831-36.012
		c-0.066-0.524-0.136-1.166-0.218-1.891c-0.207-1.912-0.473-4.286-0.907-6.659c-4.05-22.047-24.225-38.67-46.928-38.67
		c-5.512,0-10.912,0.988-16.053,2.941c-1.111,0.42-1.932,0.61-2.669,0.61c-2.035,0-3.053-1.533-3.849-3.19
		c-7.726-16.058-24.297-26.433-42.223-26.433c-0.488,0-0.978,0.016-1.466,0.032c-0.001-2.23,0.001-4.459,0-6.69
		c-0.005-10.657-5.263-15.891-15.963-15.904c-21.241-0.027-42.483,0.149-63.719-0.076C10.311,26.97,4.89,34.2,5.002,43.146
		C5.283,65.4,5.094,87.66,5.094,109.916c0,22.359-0.009,44.718,0.005,67.074c0.006,10.22,5.621,15.813,15.84,15.815
		c21.139,0.009,42.284-0.237,63.418,0.109c9.671,0.16,16.469-5.807,16.423-16.311c-0.047-10.444-0.073-20.885-0.089-31.329
		c1.781-0.28,3.564-0.547,5.347-0.805c4.118-0.6,8.376-1.219,12.49-2.104c0.82-0.178,1.42-0.26,1.95-0.26
		c1.917,0,2.863,1.087,3.696,2.711c8.862,17.342,23.423,26.327,43.272,26.71c3.625,0.072,5.978,1.164,8.385,3.894
		c7.146,8.107,16.705,13.227,29.223,15.657c0.075,0.014,0.16,0.021,0.248,0.021c0.875,0,2.033-0.566,2.33-1.008
		c0.23-0.348,0.254-1.439-0.247-3.006C207.206,186.528,206.724,185.974,206.214,185.386z"/>
	<g>
		<g>
			<path fill-rule="evenodd" clip-rule="evenodd" fill="#B41D23" d="M205.303,191.1c-0.088,0-0.173-0.008-0.248-0.021
				c-12.518-2.431-22.076-7.55-29.223-15.657c-2.407-2.729-4.76-3.821-8.385-3.894c-19.85-0.383-34.41-9.368-43.272-26.71
				c-0.833-1.624-1.779-2.711-3.696-2.711c-0.53,0-1.13,0.082-1.95,0.26c-4.113,0.886-8.372,1.505-12.49,2.104
				c-2.478,0.358-4.96,0.719-7.428,1.137c-0.658,0.112-2.892,0.587-4.071,2.006c-7.356,8.838-17.147,14.465-29.93,17.197
				c-0.209,0.043-0.468,0.07-0.74,0.07c-1.259,0-2.551-0.469-2.821-0.873c-0.292-0.445-0.031-2.19,0.738-3.705
				c1.178-2.321,2.473-4.641,3.726-6.886c1.816-3.259,3.697-6.633,5.28-10.091c2.047-4.474,1.26-8.136-2.558-11.877
				c-13.151-12.887-17.503-28.927-12.583-46.388c5.497-19.493,18.538-31.16,38.763-34.672c2.542-0.444,5.147-0.667,7.74-0.667
				c17.926,0,34.497,10.375,42.223,26.433c0.796,1.657,1.813,3.19,3.849,3.19c0.737,0,1.558-0.189,2.669-0.61
				c5.141-1.953,10.541-2.941,16.053-2.941c22.703,0,42.878,16.623,46.928,38.67c0.435,2.373,0.7,4.747,0.907,6.659
				c0.082,0.725,0.151,1.366,0.218,1.891c-0.451,15.496-5.481,26.986-15.831,36.012c-2.105,1.828-2.789,3.743-2.292,6.396
				c1.286,6.88,4.192,13.313,8.635,19.12c0.217,0.287,0.458,0.565,0.702,0.845c0.51,0.588,0.992,1.143,1.172,1.7
				c0.501,1.566,0.478,2.658,0.247,3.006C207.336,190.533,206.178,191.1,205.303,191.1z M172.484,166.783
				c1.774,0,2.895,0.564,3.864,1.951c0.734,1.055,1.634,2.158,2.741,3.365c5.476,5.998,10.92,9.531,17.654,11.463l1.912,0.549
				l-0.739-1.847c-0.198-0.507-0.38-0.93-0.535-1.31c-0.277-0.661-0.485-1.158-0.648-1.674l-0.243-0.767
				c-1.573-4.968-3.145-9.94-4.663-14.929c-0.784-2.57-0.064-4.442,2.482-6.458c13.006-10.284,18.218-24.567,15.083-41.304
				c-3.903-20.801-21.289-35.326-42.281-35.326c-3.391,0-6.821,0.392-10.19,1.163c-11.334,2.596-21.28,10.031-27.292,20.399
				c-6.033,10.404-7.551,22.765-4.168,33.907c5.561,18.287,22.788,31.06,41.896,31.06c1.368,0,2.754-0.062,4.124-0.193
				C171.831,166.801,172.16,166.783,172.484,166.783z M101.281,54.296c-4.535,0-8.946,0.728-13.105,2.163
				C73.22,61.618,62.437,73.801,59.332,89.052c-3.055,14.984,1.976,30.112,13.453,40.467c4.004,3.615,4.922,6.727,3.384,11.493
				c-0.186,0.565-0.336,1.148-0.488,1.728c-0.169,0.66-0.337,1.318-0.565,1.957c-0.943,2.642-1.921,5.274-2.945,8.043l-1.854,5.003
				l1.735-0.371c0.327-0.073,0.618-0.123,0.882-0.173c0.569-0.098,1.059-0.186,1.55-0.391c7.223-3.035,13.069-7.6,17.376-13.564
				c1.343-1.857,2.685-2.613,4.631-2.613c0.323,0,0.662,0.021,1.016,0.064c1.442,0.171,2.921,0.258,4.384,0.258
				c4.896,0,9.821-0.929,15.062-2.838c2.149-0.784,4.189-2.059,3.014-5.603c-0.531-1.588-0.806-3.481-0.872-5.952
				c-0.46-17.417,6.114-31.264,19.537-41.154c3.245-2.391,3.076-4.565,1.748-7.297C133.466,63.865,117.752,54.296,101.281,54.296z"
				/>
			<path fill-rule="evenodd" clip-rule="evenodd" fill="#B41D23" d="M205.303,191.1c-0.088,0-0.173-0.008-0.248-0.021
				c-12.518-2.431-22.076-7.55-29.223-15.657c-2.407-2.729-4.76-3.821-8.385-3.894c-19.85-0.383-34.41-9.368-43.272-26.71
				c-0.833-1.624-1.779-2.711-3.696-2.711c-0.53,0-1.13,0.082-1.95,0.26c-4.113,0.886-8.372,1.505-12.49,2.104
				c-2.478,0.358-4.96,0.719-7.428,1.137c-0.658,0.112-2.892,0.587-4.071,2.006c-7.356,8.838-17.147,14.465-29.93,17.197
				c-0.209,0.043-0.468,0.07-0.74,0.07c-1.259,0-2.551-0.469-2.821-0.873c-0.292-0.445-0.031-2.19,0.738-3.705
				c1.178-2.321,2.473-4.641,3.726-6.886c1.816-3.259,3.697-6.633,5.28-10.091c2.047-4.474,1.26-8.136-2.558-11.877
				c-13.151-12.887-17.503-28.927-12.583-46.388c5.497-19.493,18.538-31.16,38.763-34.672c2.542-0.444,5.147-0.667,7.74-0.667
				c17.926,0,34.497,10.375,42.223,26.433c0.796,1.657,1.813,3.19,3.849,3.19c0.737,0,1.558-0.189,2.669-0.61
				c5.141-1.953,10.541-2.941,16.053-2.941c22.703,0,42.878,16.623,46.928,38.67c0.435,2.373,0.7,4.747,0.907,6.659
				c0.082,0.725,0.151,1.366,0.218,1.891c-0.451,15.496-5.481,26.986-15.831,36.012c-2.105,1.828-2.789,3.743-2.292,6.396
				c1.286,6.88,4.192,13.313,8.635,19.12c0.217,0.287,0.458,0.565,0.702,0.845c0.51,0.588,0.992,1.143,1.172,1.7
				c0.501,1.566,0.478,2.658,0.247,3.006C207.336,190.533,206.178,191.1,205.303,191.1z M172.484,166.783
				c1.774,0,2.895,0.564,3.864,1.951c0.734,1.055,1.634,2.158,2.741,3.365c5.476,5.998,10.92,9.531,17.654,11.463l1.912,0.549
				l-0.739-1.847c-0.198-0.507-0.38-0.93-0.535-1.31c-0.277-0.661-0.485-1.158-0.648-1.674l-0.243-0.767
				c-1.573-4.968-3.145-9.94-4.663-14.929c-0.784-2.57-0.064-4.442,2.482-6.458c13.006-10.284,18.218-24.567,15.083-41.304
				c-3.903-20.801-21.289-35.326-42.281-35.326c-3.391,0-6.821,0.392-10.19,1.163c-11.334,2.596-21.28,10.031-27.292,20.399
				c-6.033,10.404-7.551,22.765-4.168,33.907c5.561,18.287,22.788,31.06,41.896,31.06c1.368,0,2.754-0.062,4.124-0.193
				C171.831,166.801,172.16,166.783,172.484,166.783z M101.281,54.296c-4.535,0-8.946,0.728-13.105,2.163
				C73.22,61.618,62.437,73.801,59.332,89.052c-3.055,14.984,1.976,30.112,13.453,40.467c4.004,3.615,4.922,6.727,3.384,11.493
				c-0.186,0.565-0.336,1.148-0.488,1.728c-0.169,0.66-0.337,1.318-0.565,1.957c-0.943,2.642-1.921,5.274-2.945,8.043l-1.854,5.003
				l1.735-0.371c0.327-0.073,0.618-0.123,0.882-0.173c0.569-0.098,1.059-0.186,1.55-0.391c7.223-3.035,13.069-7.6,17.376-13.564
				c1.343-1.857,2.685-2.613,4.631-2.613c0.323,0,0.662,0.021,1.016,0.064c1.442,0.171,2.921,0.258,4.384,0.258
				c4.896,0,9.821-0.929,15.062-2.838c2.149-0.784,4.189-2.059,3.014-5.603c-0.531-1.588-0.806-3.481-0.872-5.952
				c-0.46-17.417,6.114-31.264,19.537-41.154c3.245-2.391,3.076-4.565,1.748-7.297C133.466,63.865,117.752,54.296,101.281,54.296z"
				/>
			<path fill-rule="evenodd" clip-rule="evenodd" fill="#B41D23" d="M142.322,126.022c-2.792,0-3.561-0.457-3.61-2.133
				c-0.023-0.807,0.141-1.374,0.496-1.742c0.505-0.52,1.454-0.751,3.091-0.751c8.229,0.01,16.443,0.01,24.656,0.01
				c8.212,0,16.423,0,24.639-0.01c1.121,0,2.468,0.086,3.111,0.751c0.357,0.363,0.521,0.932,0.498,1.736
				c-0.047,1.682-0.812,2.139-3.562,2.139H142.322z"/>
			<path fill-rule="evenodd" clip-rule="evenodd" fill="#B41D23" d="M142.322,126.022c-2.792,0-3.561-0.457-3.61-2.133
				c-0.023-0.807,0.141-1.374,0.496-1.742c0.505-0.52,1.454-0.751,3.091-0.751c8.229,0.01,16.443,0.01,24.656,0.01
				c8.212,0,16.423,0,24.639-0.01c1.121,0,2.468,0.086,3.111,0.751c0.357,0.363,0.521,0.932,0.498,1.736
				c-0.047,1.682-0.812,2.139-3.562,2.139H142.322z"/>
			<path fill-rule="evenodd" clip-rule="evenodd" fill="#B41D23" d="M148.739,142.409c-1.564,0-2.575-0.258-3.087-0.787
				c-0.354-0.37-0.515-0.924-0.488-1.702c0.053-1.377,0.674-2.229,3.59-2.229c6.195,0.013,12.37,0.013,18.54,0.013
				c6.002,0,12.002,0,18.005-0.006c2.864,0,3.447,0.939,3.452,2.355c0.003,0.721-0.169,1.243-0.522,1.593
				c-0.511,0.516-1.457,0.762-2.895,0.762c-2.729-0.007-28.766-0.011-28.766-0.011c-2.593,0-5.188,0-7.781,0.013H148.739z"/>
			<path fill-rule="evenodd" clip-rule="evenodd" fill="#B41D23" d="M148.739,142.409c-1.564,0-2.575-0.258-3.087-0.787
				c-0.354-0.37-0.515-0.924-0.488-1.702c0.053-1.377,0.674-2.229,3.59-2.229c6.195,0.013,12.37,0.013,18.54,0.013
				c6.002,0,12.002,0,18.005-0.006c2.864,0,3.447,0.939,3.452,2.355c0.003,0.721-0.169,1.243-0.522,1.593
				c-0.511,0.516-1.457,0.762-2.895,0.762c-2.729-0.007-28.766-0.011-28.766-0.011c-2.593,0-5.188,0-7.781,0.013H148.739z"/>
			<path fill-rule="evenodd" clip-rule="evenodd" fill="#B41D23" d="M148.411,109.7c-1.393,0-2.299-0.239-2.773-0.729
				c-0.339-0.348-0.497-0.872-0.474-1.61c0.033-1.103,0.437-2.232,3.192-2.232c6.179,0.015,12.332,0.021,18.484,0.021
				c6.246,0,12.495-0.006,18.737-0.021c2.766,0,3.149,1.218,3.178,2.278c0.018,0.703-0.138,1.216-0.482,1.568
				c-0.458,0.468-1.332,0.719-2.52,0.719c-2.75-0.011-5.455-0.018-8.16-0.018H156.24c-2.58,0-5.158,0.007-7.739,0.023H148.411z"/>
			<path fill-rule="evenodd" clip-rule="evenodd" fill="#B41D23" d="M148.411,109.7c-1.393,0-2.299-0.239-2.773-0.729
				c-0.339-0.348-0.497-0.872-0.474-1.61c0.033-1.103,0.437-2.232,3.192-2.232c6.179,0.015,12.332,0.021,18.484,0.021
				c6.246,0,12.495-0.006,18.737-0.021c2.766,0,3.149,1.218,3.178,2.278c0.018,0.703-0.138,1.216-0.482,1.568
				c-0.458,0.468-1.332,0.719-2.52,0.719c-2.75-0.011-5.455-0.018-8.16-0.018H156.24c-2.58,0-5.158,0.007-7.739,0.023H148.411z"/>
			<g>
				<path fill-rule="evenodd" clip-rule="evenodd" fill="#B41D23" d="M81.212,101.052c-2.241,0-2.856-0.458-2.896-2.131
					c-0.018-0.805,0.109-1.376,0.397-1.745c0.402-0.518,1.168-0.748,2.48-0.748c6.605,0.007,13.195,0.01,19.784,0.01
					c6.588,0,13.179-0.003,19.771-0.01c0.9,0,1.98,0.084,2.5,0.748c0.28,0.367,0.414,0.935,0.397,1.738
					c-0.038,1.68-0.649,2.138-2.86,2.138H81.212z"/>
				<path fill-rule="evenodd" clip-rule="evenodd" fill="#B41D23" d="M81.212,101.052c-2.241,0-2.856-0.458-2.896-2.131
					c-0.018-0.805,0.109-1.376,0.397-1.745c0.402-0.518,1.168-0.748,2.48-0.748c6.605,0.007,13.195,0.01,19.784,0.01
					c6.588,0,13.179-0.003,19.771-0.01c0.9,0,1.98,0.084,2.5,0.748c0.28,0.367,0.414,0.935,0.397,1.738
					c-0.038,1.68-0.649,2.138-2.86,2.138H81.212z"/>
				<path fill-rule="evenodd" clip-rule="evenodd" fill="#B41D23" d="M86.365,117.438c-1.258,0-2.072-0.257-2.477-0.786
					c-0.285-0.371-0.413-0.928-0.395-1.703c0.043-1.374,0.54-2.229,2.881-2.229c4.971,0.009,9.922,0.015,14.877,0.015
					c4.818,0,9.629-0.006,14.447-0.011c2.301,0,2.766,0.943,2.772,2.359c0,0.717-0.14,1.237-0.421,1.593
					c-0.415,0.509-1.171,0.759-2.324,0.759c-2.187-0.004-23.08-0.007-23.08-0.007c-2.081,0-4.163,0.003-6.246,0.01H86.365z"/>
				<path fill-rule="evenodd" clip-rule="evenodd" fill="#B41D23" d="M86.365,117.438c-1.258,0-2.072-0.257-2.477-0.786
					c-0.285-0.371-0.413-0.928-0.395-1.703c0.043-1.374,0.54-2.229,2.881-2.229c4.971,0.009,9.922,0.015,14.877,0.015
					c4.818,0,9.629-0.006,14.447-0.011c2.301,0,2.766,0.943,2.772,2.359c0,0.717-0.14,1.237-0.421,1.593
					c-0.415,0.509-1.171,0.759-2.324,0.759c-2.187-0.004-23.08-0.007-23.08-0.007c-2.081,0-4.163,0.003-6.246,0.01H86.365z"/>
				<path fill-rule="evenodd" clip-rule="evenodd" fill="#B41D23" d="M86.098,84.729c-1.117,0-1.845-0.238-2.222-0.726
					c-0.273-0.349-0.401-0.875-0.383-1.609c0.029-1.104,0.348-2.233,2.562-2.233c4.959,0.015,9.898,0.021,14.832,0.021
					c5.01,0,10.024-0.007,15.037-0.021c2.216,0,2.527,1.219,2.552,2.277c0.013,0.703-0.114,1.217-0.391,1.568
					c-0.365,0.47-1.064,0.72-2.022,0.72c-2.206-0.013-4.376-0.017-6.547-0.017l-17.134-0.001c-2.069,0-4.141,0.004-6.21,0.021
					H86.098z"/>
				<path fill-rule="evenodd" clip-rule="evenodd" fill="#B41D23" d="M86.098,84.729c-1.117,0-1.845-0.238-2.222-0.726
					c-0.273-0.349-0.401-0.875-0.383-1.609c0.029-1.104,0.348-2.233,2.562-2.233c4.959,0.015,9.898,0.021,14.832,0.021
					c5.01,0,10.024-0.007,15.037-0.021c2.216,0,2.527,1.219,2.552,2.277c0.013,0.703-0.114,1.217-0.391,1.568
					c-0.365,0.47-1.064,0.72-2.022,0.72c-2.206-0.013-4.376-0.017-6.547-0.017l-17.134-0.001c-2.069,0-4.141,0.004-6.21,0.021
					H86.098z"/>
			</g>
		</g>
		<path fill-rule="evenodd" clip-rule="evenodd" d="M98.61,145.607c-0.351,0.061-1.147,0.229-1.993,0.581c0,7.165,0,14.328,0,21.509
			c-29.251,0-58.216,0-87.406,0c0-40.092,0-80.099,0-120.353c29.005,0,58.108,0,87.406,0c0,0.907,0,1.815,0,2.722
			c1.35-0.166,2.709-0.269,4.071-0.312c-0.001-2.23,0.001-4.46,0-6.691c-0.005-10.657-5.263-15.891-15.963-15.904
			c-21.241-0.027-42.483,0.149-63.719-0.076C10.311,26.97,4.89,34.2,5.002,43.146C5.283,65.4,5.094,87.66,5.094,109.916
			c0,22.359-0.009,44.718,0.005,67.074c0.006,10.22,5.621,15.813,15.84,15.815c21.139,0.009,42.284-0.237,63.418,0.109
			c9.671,0.16,16.469-5.807,16.423-16.311c-0.047-10.444-0.073-20.885-0.089-31.329C99.997,145.385,99.302,145.49,98.61,145.607z
			 M19.44,31.073c9.442-0.118,18.889-0.034,28.336-0.034c12.694,0,25.389-0.046,38.079,0.018
			c7.324,0.039,11.391,4.624,10.746,12.132c-29.246,0-58.257,0-87.243,0C8.148,36.31,12.383,31.162,19.44,31.073z M96.474,180.889
			c-0.752,4.621-4.46,7.627-9.212,7.833c-4.261,0.186-8.531,0.095-12.796,0.097c-17.375,0.008-34.745,0.002-52.12,0.002
			c-10.204,0-13.375-3.211-13.37-13.532c0-1.105,0-2.208,0-3.567c29.435,0,58.452,0,87.585,0
			C96.561,174.887,96.95,177.957,96.474,180.889z"/>
	</g>
</g>
</svg>
