<?xml version="1.0" encoding="utf-8"?>
<!-- Generator: Adobe Illustrator 16.0.0, SVG Export Plug-In . SVG Version: 6.00 Build 0)  -->
<!DOCTYPE svg PUBLIC "-//W3C//DTD SVG 1.1//EN" "http://www.w3.org/Graphics/SVG/1.1/DTD/svg11.dtd">
<svg version="1.1" id="圖層_1" xmlns="http://www.w3.org/2000/svg" xmlns:xlink="http://www.w3.org/1999/xlink" x="0px" y="0px"
	 width="220px" height="220px" viewBox="0 0 220 220" enable-background="new 0 0 220 220" xml:space="preserve">
<g>
	<path fill-rule="evenodd" clip-rule="evenodd" fill="#FFFFFF" d="M186.015,131.649c-0.01-1.656-0.021-3.307-0.032-4.95
		l-0.011-1.172c-0.035-6.148-4.854-11.342-11.205-12.078c-0.479-0.059-0.957-0.078-1.438-0.078c-0.001,0-0.001,0-0.001,0
		c-0.495,0-1.002,0.03-1.515,0.07c-0.993,0.078-2.017,0.211-3.081,0.355c-1.068,0.145-2.147,0.289-3.243,0.381
		c-0.056,0.008-0.109,0.011-0.163,0.011c-0.004,0-0.008,0.001-0.011,0.001c-0.611,0-1.196-0.283-1.577-0.77
		c-3.493-4.491-6.317-6.162-10.422-6.162c-1.966,0-4.276,0.376-7.271,1.182c-0.171,0.045-0.348,0.069-0.52,0.069
		c-0.579,0-1.136-0.251-1.522-0.702c-4.428-5.197-6.904-6.542-12.039-6.542c-1.248,0-2.732,0.085-4.534,0.268
		c-0.071,0.007-0.136,0.011-0.201,0.011c-0.123,0-0.245-0.012-0.365-0.034c-0.359-0.068-0.698-0.235-0.978-0.486
		c-0.416-0.378-0.658-0.916-0.658-1.479v-4.641v-3.857c0-1.104,0.895-2,2.001-2l9.335-0.002
		c10.821-0.076,16.569-5.805,16.632-16.562c0.068-11.942,0.066-23.882,0.004-35.823c-0.055-11.012-5.619-16.606-16.533-16.624
		C122.618,20.009,108.569,20,94.521,20c-14.625,0-29.25,0.009-43.873,0.034c-11.121,0.014-16.558,5.405-16.625,16.483
		c-0.082,12.226-0.082,24.277,0.002,35.815c0.071,10.766,5.866,16.468,16.751,16.486l45.188,0.004c1.106,0,2,0.894,2,2v16.609
		v28.382c0,0.637-0.307,1.24-0.823,1.615l-0.989,0.723c-0.356,0.262-0.77,0.389-1.183,0.389c-0.555,0-1.109-0.232-1.501-0.678
		c-0.608-0.697-1.207-1.406-1.802-2.119c-0.968-1.157-1.896-2.266-2.881-3.287c-0.329-0.34-0.664-0.671-1.009-0.99
		c-2.503-2.324-5.711-3.605-9.038-3.605c-4.073,0-7.914,1.887-10.532,5.174c-4.235,5.325-4.104,11.773,0.343,17.248
		c11.244,13.817,20.649,25.09,29.601,35.472c5.466,6.339,12.729,10.604,21.01,12.336c5.321,1.108,10.829,1.74,16.412,1.881
		c0.797,0.021,1.596,0.03,2.396,0.03c5.496,0,11.125-0.476,16.734-1.417c15.84-2.65,29.551-16.945,30.562-31.864
		C186.053,155.104,186.08,143.242,186.015,131.649z"/>
	<g>
		<g>
			<path fill-rule="evenodd" clip-rule="evenodd" d="M137.969,200c-6.402,0-12.728-0.645-18.809-1.911
				c-8.28-1.731-15.544-5.997-21.01-12.336c-8.952-10.382-18.357-21.654-29.601-35.472c-4.447-5.475-4.578-11.923-0.343-17.248
				c2.618-3.287,6.459-5.174,10.532-5.174c3.327,0,6.535,1.281,9.038,3.605c1.382,1.277,2.6,2.734,3.891,4.278
				c0.595,0.712,1.193,1.422,1.802,2.118c0.392,0.445,0.946,0.679,1.501,0.679c0.413,0,0.826-0.127,1.183-0.389l0.989-0.723
				c0.517-0.375,0.823-0.979,0.823-1.615V90.821c0-1.105-0.894-2-2-2l-45.188-0.004c-10.885-0.018-16.68-5.72-16.751-16.486
				c-0.084-11.538-0.084-23.59-0.002-35.815c0.067-11.078,5.504-16.469,16.625-16.483C65.271,20.009,79.896,20,94.521,20
				c14.048,0,28.097,0.009,42.145,0.034c10.914,0.018,16.479,5.612,16.533,16.624c0.062,11.94,0.064,23.881-0.004,35.823
				c-0.062,10.756-5.811,16.485-16.632,16.562l-9.335,0.002c-1.106,0-2.001,0.896-2.001,2v8.498c0,0.564,0.242,1.102,0.658,1.48
				c0.372,0.334,0.851,0.52,1.343,0.52c0.065,0,0.13-0.004,0.201-0.01c1.802-0.183,3.286-0.268,4.534-0.268
				c5.135,0,7.611,1.345,12.039,6.541c0.387,0.451,0.942,0.703,1.522,0.703c0.172,0,0.348-0.025,0.52-0.07
				c2.994-0.805,5.305-1.181,7.271-1.181c4.104,0,6.928,1.671,10.422,6.161c0.381,0.486,0.965,0.77,1.576,0.77
				c0.057,0,0.115-0.003,0.174-0.011c1.096-0.093,2.176-0.237,3.244-0.381c1.613-0.22,3.143-0.427,4.596-0.427
				c0.48,0,0.959,0.02,1.438,0.079c6.352,0.736,11.17,5.929,11.205,12.077l0.012,1.172c0.09,13.148,0.182,26.746-0.717,40.02
				c-1.012,14.919-14.723,29.214-30.562,31.864C149.094,199.524,143.465,200,137.969,200z M78.932,134.202
				c-1.686,0-3.355,0.715-4.815,2.068c-2.553,2.365-2.909,5.551-0.998,8.974c0.308,0.546,0.707,1.049,1.109,1.536l26.613,32.209
				c6.77,8.201,15.061,12.807,24.643,13.679c4.749,0.436,9.311,0.652,13.569,0.652c4.124,0,8.113-0.203,11.857-0.608
				c16.555-1.789,27.92-13.211,28.955-29.103c0.564-8.585,0.465-17.308,0.375-25.748c-0.039-3.725-0.078-7.445-0.064-11.164
				c0-0.457-0.09-0.838-0.154-1.118c-0.674-3.722-3.254-5.903-6.775-5.903c-0.031,0-0.391,0.01-0.42,0.01
				c-3.646,0.183-6.158,2.596-6.404,6.146c-0.109,1.566-0.135,3.14-0.158,4.714l-0.008,0.595c-0.082,5.182-2.057,5.209-3.232,5.23
				c-0.018,0-0.035,0-0.053,0c-1.389,0-3.115-0.065-3.178-5.031c-0.014-1.188-0.01-2.379-0.002-3.566
				c0.006-2.484,0.016-5.051-0.15-7.604c-0.232-3.773-3.258-6.73-6.887-6.73c-4.055,0.168-6.818,3.071-7.012,7.064
				c-0.049,1.009-0.037,2.018-0.023,3.031c0.01,0.943,0.023,1.887-0.025,2.827c-0.127,2.577-1.223,3.884-3.25,3.888
				c-2.559-0.02-3.127-2.14-3.159-3.912c-0.032-1.795-0.021-3.588-0.017-5.385c0.011-1.898,0.02-3.798-0.019-5.695
				c-0.09-4.885-2.732-7.985-6.892-8.082c-0.002,0-0.002,0-0.002,0c-4.225,0-6.886,3.007-7.142,7.852
				c-0.043,0.854-0.049,1.717-0.052,2.579c-0.003,1.419-0.011,2.757-0.209,4.028c-0.267,1.661-1.617,2.533-2.813,2.533
				c-0.492,0-1.215-0.148-1.856-0.861c-0.829-0.918-1.446-2.821-1.463-4.521c-0.117-10.728-0.111-21.453-0.101-32.183l0.003-12.423
				c-0.003-1.249-0.035-2.72-0.253-4.18c-0.473-3.206-2.911-5.447-5.929-5.447c-0.291,0-0.582,0.021-0.884,0.062
				c-2.411,0.337-4.539,2.266-5.896,3.818c-1.079,1.24-1.03,2.985-0.992,4.39l0.011,0.696c-0.021,8.958-0.02,17.917-0.02,26.876
				l0.006,15.396c0.003,8.604,0.006,17.207-0.024,25.809c0,1.361-0.003,2.767-0.375,3.841c-0.756,2.169-2.661,3.521-4.983,3.521
				c-1.636,0-3.262-0.68-4.583-1.911c-1.886-1.754-3.716-3.563-5.545-5.374c-1.879-1.854-3.752-3.705-5.682-5.5
				C82.186,134.887,80.581,134.202,78.932,134.202z M51.1,27.561c-7.133,0-9.544,2.396-9.555,9.49
				c-0.011,9.778-0.003,34.2-0.003,34.2c0.006,7.565,2.702,10.247,10.311,10.253l44.47,0.004c1.104,0,2.001-0.896,2.001-2
				l-0.014-2.713c-0.011-1.783-0.021-3.44,0.019-5.096c0.207-7.585,6.003-13.532,13.198-13.532
				c7.366,0.031,13.067,5.846,13.314,13.532c0.052,1.58,0.038,3.164,0.024,4.855l-0.014,2.516c0,1.105,0.895,2,2.001,2h9.332
				c6.904-0.018,9.242-2.372,9.26-9.333c0.027-11.614,0.025-23.235,0-34.856c-0.018-6.962-2.372-9.313-9.336-9.32l-42.505-0.004
				L51.1,27.561z"/>
			<path fill-rule="evenodd" clip-rule="evenodd" d="M71.518,65.477c-0.829,0-1.768-0.541-2.781-1.608
				c-2.305-2.417-4.583-4.862-6.779-7.372c-0.864-0.981-1.286-1.972-1.221-2.871c0.052-0.741,0.446-1.426,1.158-2.039
				c0.608-0.521,1.27-0.786,1.954-0.786c0.952,0,1.931,0.496,2.827,1.433c0.686,0.709,1.34,1.446,2.063,2.252l1.166,1.302
				c0.375,0.414,0.905,0.65,1.466,0.657c0.005,0,0.008,0,0.016,0c0.555,0,1.082-0.23,1.46-0.633c0,0,7.734-8.284,9.863-10.543
				c1.079-1.143,2.316-1.772,3.479-1.772c0.843,0,1.609,0.326,2.267,0.974c1.963,1.932,0.109,4.339-0.779,5.282l-2.444,2.606
				c-3.632,3.877-7.269,7.754-10.966,11.566C73.26,64.953,72.338,65.477,71.518,65.477z"/>
		</g>
		<path fill-rule="evenodd" clip-rule="evenodd" fill="#B41D23" d="M185.972,125.527c-0.035-6.148-4.854-11.342-11.205-12.078
			c-0.479-0.059-0.957-0.078-1.438-0.078c-1.454,0-2.982,0.207-4.597,0.426c-1.068,0.145-2.147,0.289-3.243,0.381
			c-0.06,0.008-0.117,0.012-0.174,0.012c-0.611,0-1.196-0.283-1.577-0.77c-3.493-4.491-6.317-6.162-10.422-6.162
			c-1.966,0-4.276,0.376-7.271,1.182c-0.171,0.045-0.348,0.069-0.52,0.069c-0.579,0-1.136-0.251-1.522-0.702
			c-4.428-5.197-6.904-6.542-12.039-6.542c-1.248,0-2.732,0.085-4.534,0.268c-0.071,0.007-0.136,0.011-0.201,0.011
			c-0.492,0-0.971-0.186-1.343-0.521c-0.416-0.378-0.658-0.916-0.658-1.479v-4.641h-0.219V79.846
			c-0.101-0.238-0.156-0.501-0.156-0.776l0.014-2.517c0.014-1.69,0.027-3.275-0.024-4.854c-0.247-7.687-5.948-13.501-13.314-13.532
			c-7.195,0-12.991,5.947-13.198,13.532c-0.04,1.655-0.029,3.312-0.019,5.096l0.014,2.713c0,0.425-0.134,0.815-0.359,1.14V90.82
			v16.61v28.382c0,0.637-0.307,1.24-0.823,1.615l-0.989,0.723c-0.356,0.262-0.77,0.389-1.183,0.389
			c-0.555,0-1.109-0.232-1.501-0.678c-0.608-0.697-1.207-1.406-1.802-2.119c-1.291-1.543-2.509-3-3.891-4.277
			c-2.503-2.324-5.711-3.605-9.038-3.605c-4.072,0-7.913,1.887-10.531,5.174c-4.235,5.324-4.104,11.773,0.343,17.248
			c11.243,13.816,20.648,25.09,29.601,35.471c5.466,6.34,12.729,10.605,21.01,12.336c6.081,1.268,12.406,1.912,18.809,1.912
			c5.496,0,11.126-0.477,16.734-1.418c15.84-2.65,29.551-16.945,30.562-31.863c0.899-13.273,0.807-26.871,0.717-40.02
			L185.972,125.527z M179.866,163.609c-1.035,15.891-12.4,27.312-28.955,29.102c-3.744,0.406-7.734,0.609-11.858,0.609
			c-4.259,0-8.82-0.217-13.569-0.652c-9.582-0.873-17.873-5.479-24.643-13.68l-26.612-32.209c-0.402-0.486-0.802-0.99-1.109-1.535
			c-1.911-3.424-1.555-6.609,0.998-8.975c1.46-1.354,3.129-2.068,4.814-2.068c1.649,0,3.254,0.686,4.643,1.977
			c1.93,1.795,3.803,3.645,5.682,5.5c1.829,1.811,3.659,3.619,5.545,5.373c1.321,1.232,2.947,1.912,4.583,1.912
			c2.322,0,4.228-1.352,4.983-3.521c0.372-1.074,0.375-2.479,0.375-3.84c0.03-8.602,0.027-17.205,0.024-25.809l-0.006-15.396
			c0-8.959-0.002-17.918,0.02-26.877l-0.011-0.695c-0.038-1.406-0.087-3.15,0.992-4.391c1.356-1.553,3.484-3.48,5.896-3.818
			c0.302-0.041,0.593-0.062,0.884-0.062c3.018,0,5.456,2.242,5.929,5.447c0.218,1.461,0.25,2.932,0.253,4.18l-0.003,12.424
			c-0.011,10.729-0.017,21.454,0.101,32.182c0.017,1.699,0.634,3.604,1.463,4.521c0.642,0.713,1.364,0.861,1.856,0.861
			c1.196,0,2.547-0.873,2.813-2.533c0.198-1.271,0.206-2.609,0.209-4.029c0.003-0.861,0.009-1.725,0.052-2.578
			c0.256-4.846,2.917-7.852,7.142-7.852c0,0,0,0,0.002,0c4.159,0.096,6.802,3.197,6.892,8.082c0.038,1.896,0.029,3.797,0.019,5.695
			c-0.005,1.797-0.016,3.59,0.017,5.385c0.032,1.771,0.601,3.893,3.159,3.912c2.027-0.004,3.123-1.311,3.251-3.889
			c0.049-0.939,0.035-1.883,0.024-2.826c-0.014-1.014-0.024-2.023,0.024-3.031c0.193-3.994,2.957-6.896,7.011-7.064
			c3.629,0,6.654,2.957,6.888,6.73c0.166,2.553,0.155,5.119,0.15,7.604c-0.009,1.188-0.012,2.377,0.002,3.566
			c0.062,4.965,1.789,5.031,3.178,5.031c0.017,0,0.035,0,0.052,0c1.177-0.021,3.15-0.049,3.232-5.23l0.008-0.596
			c0.024-1.574,0.049-3.146,0.158-4.713c0.247-3.551,2.759-5.965,6.404-6.146c0.03,0,0.389-0.01,0.421-0.01
			c3.521,0,6.101,2.182,6.774,5.902c0.065,0.281,0.155,0.662,0.155,1.119c-0.014,3.719,0.024,7.439,0.064,11.164
			C180.331,146.301,180.43,155.023,179.866,163.609z"/>
	</g>
</g>
</svg>
